<svg fill="#7B53D8" xmlns="http://www.w3.org/2000/svg" xmlns:xlink="http://www.w3.org/1999/xlink" version="1.1" x="0px" y="0px" viewBox="0 0 91 91" style="enable-background:new 0 0 91 91;" xml:space="preserve"><g><g><g><path d="M77.2,20.3c-3.8,0-6.9,3.1-6.9,6.9c0,0.9,0.2,1.8,0.5,2.7l-4.5,2.4c-0.4,0.2-0.7,0.6-0.9,1.1l-1,3.3     c-2.1-0.3-4.2-0.6-6.4-0.8V20.8l5.2-4.3c1.1,0.7,2.4,1.1,3.7,1.1c3.8,0,6.9-3.1,6.9-6.9s-3.1-6.9-6.9-6.9S60,6.9,60,10.7     c0,1.1,0.3,2.1,0.7,3l-5.8,4.8c-0.4,0.3-0.7,0.9-0.7,1.4v15.7c-2.8-0.2-5.3-0.3-7.1-0.3V14c2.9-0.8,5.1-3.5,5.1-6.6     c0-3.8-3.1-6.9-6.9-6.9c-3.8,0-6.9,3.1-6.9,6.9c0,3.2,2.2,5.8,5.1,6.6v21.3c-1.3,0-4.1,0-7.6,0.2V19.9c0-0.5-0.2-1.1-0.7-1.4     l-5.9-4.9c0.4-0.9,0.7-1.9,0.7-2.9c0-3.8-3.1-6.9-6.9-6.9s-6.9,3.1-6.9,6.9s3.1,6.9,6.9,6.9c1.4,0,2.7-0.4,3.8-1.2l5.2,4.4v14.9     c-2.1,0.2-4.4,0.4-6.6,0.7l-0.9-3c-0.1-0.5-0.5-0.9-0.9-1.1l-4.5-2.4c0.3-0.8,0.5-1.7,0.5-2.7c0-3.8-3.1-6.9-6.9-6.9     s-6.9,3.1-6.9,6.9s3.1,6.9,6.9,6.9c1.5,0,2.9-0.5,4-1.3l4.5,2.4l0.5,1.8C16,38.1,11.3,39.8,11,42.6v0.1c0,0.1,0,0.1,0,0.2     c0,1,0.6,1.9,1.6,2.7l23.7,30.7v12.2c0,0.6,0.3,1.2,0.9,1.6c0.3,0.2,0.6,0.3,0.9,0.3c0.3,0,0.6-0.1,0.9-0.2l11.2-6     c0.6-0.3,1-0.9,1-1.6v-6.2l23.7-30.7c1-0.8,1.6-1.7,1.6-2.7c0-0.1,0-0.1,0-0.2c0-0.1,0-0.1,0-0.1c-0.3-2.5-4-4.1-8.8-5.2l0.7-2.3     l4.4-2.4c1.1,0.8,2.5,1.3,4,1.3c3.8,0,6.9-3.1,6.9-6.9C84.1,23.4,81,20.3,77.2,20.3z M67.1,7.4c1.8,0,3.2,1.4,3.2,3.2     s-1.4,3.2-3.2,3.2s-3.2-1.4-3.2-3.2S65.3,7.4,67.1,7.4z M20.1,10.7c0-1.8,1.4-3.2,3.2-3.2c1.8,0,3.2,1.4,3.2,3.2     s-1.4,3.2-3.2,3.2C21.6,13.9,20.1,12.4,20.1,10.7z M9.9,27.2c0-1.8,1.4-3.2,3.2-3.2s3.2,1.4,3.2,3.2c0,1.8-1.4,3.2-3.2,3.2     S9.9,28.9,9.9,27.2z M42.3,7.4c0-1.8,1.4-3.2,3.2-3.2s3.2,1.4,3.2,3.2s-1.4,3.2-3.2,3.2C43.7,10.6,42.3,9.2,42.3,7.4z M23.6,41.9     c0.2,0.8,1,1.3,1.8,1.3c0.2,0,0.3,0,0.5-0.1c1-0.3,1.5-1.3,1.3-2.3l-0.3-1c1.7-0.2,3.5-0.4,5.6-0.6v2.1c0,1,0.8,1.8,1.8,1.8     s1.8-0.8,1.8-1.8V39c2.3-0.1,4.9-0.2,7.6-0.2v7.9c-15.8,0-25.2-2.2-28-3.6l-0.3-0.4c1-0.7,3.7-1.5,7.8-2.3L23.6,41.9z M48.3,74.5     c-0.2,0.3-0.4,0.7-0.4,1.1v5.7l-7.6,4.1v-9.8c0-0.4-0.1-0.8-0.4-1.1L19.7,48.3c9,2.1,22.3,2.2,24.5,2.2s15.5-0.1,24.5-2.2     L48.3,74.5z M72.9,42.8l-0.3,0.4c-2.6,1.4-11.1,3.4-25.2,3.6V39c2.6,0,4.9,0.2,7.1,0.3v3.2c0,1,0.8,1.8,1.8,1.8s1.8-0.8,1.8-1.8     v-2.9c2,0.2,3.8,0.4,5.3,0.7L63.2,41c-0.3,1,0.3,2,1.3,2.3c0.2,0,0.3,0.1,0.5,0.1c0.8,0,1.5-0.5,1.8-1.3l0.3-1     C70.1,41.5,72,42.2,72.9,42.8z M77.2,30.4c-1.8,0-3.2-1.4-3.2-3.2c0-1.8,1.4-3.2,3.2-3.2s3.2,1.4,3.2,3.2     C80.5,28.9,79,30.4,77.2,30.4z"></path></g></g></g></svg>